<?xml version="1.0" encoding="utf-8"?>
<!-- Generator: Adobe Illustrator 26.5.0, SVG Export Plug-In . SVG Version: 6.00 Build 0)  -->
<svg version="1.1" id="Layer_1" xmlns="http://www.w3.org/2000/svg" xmlns:xlink="http://www.w3.org/1999/xlink" x="0px" y="0px"
	 viewBox="0 0 153.2 129.6" style="enable-background:new 0 0 153.2 129.6;" xml:space="preserve">
<style type="text/css">
	.st0{clip-path:url(#SVGID_00000068635190408579425210000006961977913358288789_);}
	.st1{fill:#A0252B;}
	.st2{fill:#F04937;}
	.st3{fill:#FFFFFF;}
	.st4{fill:#6D0020;}
</style>
<g>
	<g>
		<g>
			<g>
				<defs>
					<rect id="SVGID_1_" x="2.1" y="2.9" width="146.4" height="125.5"/>
				</defs>
				<clipPath id="SVGID_00000079451930498088940200000011825348899499826851_">
					<use xlink:href="#SVGID_1_"  style="overflow:visible;"/>
				</clipPath>
				<g style="clip-path:url(#SVGID_00000079451930498088940200000011825348899499826851_);">
					<path class="st1" d="M142.7,99.6c-7.8,4.1-48.3,20.7-57,25.3c-8.7,4.6-13.4,4.4-20.2,1.2S15.8,105.4,8,101.7
						c-3.9-1.8-5.9-3.4-5.9-4.9V82c0,0,56.1-12.2,65.1-15.4c9.1-3.3,12.2-3.4,19.9-0.5c7.7,2.8,53.8,11.1,61.4,13.9v14.6
						C148.5,96,146.7,97.5,142.7,99.6L142.7,99.6z"/>
					<path class="st2" d="M142.7,84.9c-7.8,4.1-48.3,20.7-57,25.2s-13.4,4.4-20.2,1.2C58.7,108,15.8,90.6,8,86.9
						c-7.8-3.7-7.9-6.3-0.3-9.3s50.5-19.8,59.5-23s12.2-3.4,19.9-0.5s47.9,18.8,55.5,21.6C150.3,78.5,150.6,80.8,142.7,84.9
						L142.7,84.9z"/>
					<path class="st1" d="M142.7,75.5c-7.8,4.1-48.3,20.7-57,25.2s-13.4,4.4-20.2,1.2S15.8,81.3,8,77.6c-3.9-1.9-5.9-3.4-5.9-4.9
						V57.9c0,0,56.1-12.2,65.1-15.5c9.1-3.3,12.2-3.4,19.9-0.5c7.7,2.8,53.8,11.1,61.4,13.9v14.6C148.5,71.9,146.7,73.4,142.7,75.5z
						"/>
					<path class="st2" d="M142.7,60.7c-7.8,4.1-48.3,20.7-57,25.2s-13.4,4.5-20.2,1.2S15.8,66.5,8,62.8s-7.9-6.3-0.3-9.2
						c7.6-3,50.5-19.8,59.5-23s12.2-3.4,19.9-0.5s47.9,18.9,55.5,21.6C150.3,54.3,150.6,56.6,142.7,60.7L142.7,60.7z"/>
					<path class="st1" d="M142.7,50.5c-7.8,4.1-48.3,20.7-57,25.2s-13.4,4.4-20.2,1.2S15.8,56.2,8,52.5c-3.9-1.8-5.9-3.4-5.9-4.9
						V32.8c0,0,56.1-12.2,65.1-15.4s12.2-3.4,19.9-0.5c7.7,2.8,53.8,11.1,61.4,13.9v14.6C148.5,46.9,146.7,48.4,142.7,50.5z"/>
					<path class="st2" d="M142.7,35.7c-7.8,4-48.3,20.8-57,25.2s-13.4,4.4-20.2,1.2C58.7,58.9,15.8,41.4,8,37.7s-7.9-6.3-0.3-9.3
						s50.5-19.8,59.5-23s12.2-3.4,19.9-0.5s47.9,18.8,55.5,21.6S150.6,31.6,142.7,35.7L142.7,35.7z"/>
				</g>
			</g>
			<polygon class="st3" points="77.6,14.7 87.2,11.5 84.6,17.8 94.5,21.4 81.8,22.8 78.9,29.6 74.3,22 59.7,20.7 70.6,16.7 
				67.3,10.7 77.6,14.7 77.6,14.7 			"/>
			<polygon class="st3" points="78.2,54.6 54.5,44.8 88.4,39.6 78.2,54.6 78.2,54.6 			"/>
			<path class="st3" d="M45.4,25.2c10,0,18.1,3.2,18.1,7s-8.1,7-18.1,7s-18.1-3.2-18.1-7S35.3,25.2,45.4,25.2z"/>
			<polygon class="st4" points="109.5,23.3 129.5,31.2 109.5,39.2 109.5,23.3 109.5,23.3 			"/>
			<polygon class="st1" points="109.5,23.3 109.5,39.2 107.3,40 87.2,32.1 109.5,23.3 109.5,23.3 			"/>
		</g>
	</g>
</g>
</svg>
